<svg width="20" height="18" viewBox="0 0 20 18" fill="none" xmlns="http://www.w3.org/2000/svg">
<path d="M15.25 6.75V9.75C15.25 9.94891 15.171 10.1397 15.0303 10.2803C14.8897 10.421 14.6989 10.5 14.5 10.5H7.31031L8.28063 11.4694C8.35031 11.5391 8.40558 11.6218 8.4433 11.7128C8.48101 11.8039 8.50042 11.9015 8.50042 12C8.50042 12.0985 8.48101 12.1961 8.4433 12.2872C8.40558 12.3782 8.35031 12.4609 8.28063 12.5306C8.21094 12.6003 8.12822 12.6556 8.03717 12.6933C7.94613 12.731 7.84855 12.7504 7.75 12.7504C7.65145 12.7504 7.55387 12.731 7.46283 12.6933C7.37178 12.6556 7.28906 12.6003 7.21937 12.5306L4.96937 10.2806C4.89964 10.211 4.84432 10.1283 4.80658 10.0372C4.76884 9.94616 4.74941 9.84856 4.74941 9.75C4.74941 9.65144 4.76884 9.55384 4.80658 9.4628C4.84432 9.37175 4.89964 9.28903 4.96937 9.21937L7.21937 6.96937C7.36011 6.82864 7.55098 6.74958 7.75 6.74958C7.94902 6.74958 8.13989 6.82864 8.28063 6.96937C8.42136 7.11011 8.50042 7.30098 8.50042 7.5C8.50042 7.69902 8.42136 7.88989 8.28063 8.03063L7.31031 9H13.75V6.75C13.75 6.55109 13.829 6.36032 13.9697 6.21967C14.1103 6.07902 14.3011 6 14.5 6C14.6989 6 14.8897 6.07902 15.0303 6.21967C15.171 6.36032 15.25 6.55109 15.25 6.75ZM19.75 2.25V15.75C19.75 16.1478 19.592 16.5294 19.3107 16.8107C19.0294 17.092 18.6478 17.25 18.25 17.25H1.75C1.35218 17.25 0.970644 17.092 0.68934 16.8107C0.408035 16.5294 0.25 16.1478 0.25 15.75V2.25C0.25 1.85218 0.408035 1.47064 0.68934 1.18934C0.970644 0.908035 1.35218 0.75 1.75 0.75H18.25C18.6478 0.75 19.0294 0.908035 19.3107 1.18934C19.592 1.47064 19.75 1.85218 19.75 2.25ZM18.25 15.75V2.25H1.75V15.75H18.25Z" fill="#F84568"/>
</svg>
